<mxfile host="65bd71144e">
    <diagram id="lpzUL-cBZjmtBkBUA3Ur" name="Page-1">
        <mxGraphModel dx="1086" dy="583" grid="1" gridSize="10" guides="1" tooltips="1" connect="1" arrows="1" fold="1" page="1" pageScale="1" pageWidth="850" pageHeight="1100" math="0" shadow="0">
            <root>
                <mxCell id="0"/>
                <mxCell id="1" parent="0"/>
                <mxCell id="2" value="(Icon)Header" style="rounded=1;whiteSpace=wrap;html=1;" vertex="1" parent="1">
                    <mxGeometry x="80" y="150" width="200" height="50" as="geometry"/>
                </mxCell>
                <mxCell id="4" value="" style="endArrow=none;html=1;" edge="1" parent="1">
                    <mxGeometry width="50" height="50" relative="1" as="geometry">
                        <mxPoint x="80" y="240" as="sourcePoint"/>
                        <mxPoint x="280" y="240" as="targetPoint"/>
                    </mxGeometry>
                </mxCell>
                <mxCell id="6" value="Section Content." style="rounded=1;whiteSpace=wrap;html=1;" vertex="1" parent="1">
                    <mxGeometry x="80" y="270" width="530" height="190" as="geometry"/>
                </mxCell>
            </root>
        </mxGraphModel>
    </diagram>
</mxfile>